<svg width="20" height="20" viewBox="0 0 20 20" fill="none" xmlns="http://www.w3.org/2000/svg">
<path d="M16.7557 16.7574C15.5964 17.9168 13.7304 17.9168 9.99835 17.9168C6.26643 17.9168 4.40046 17.9168 3.24109 16.7574C2.08173 15.598 2.08173 13.7321 2.08173 10.0001C2.08173 6.26815 2.08173 4.40218 3.24109 3.24281C4.40046 2.08344 6.26643 2.08344 9.99835 2.08344C13.7304 2.08344 15.5964 2.08344 16.7557 3.24281C17.915 4.40218 17.915 6.26815 17.915 10.0001C17.915 13.7321 17.915 15.598 16.7557 16.7574Z" stroke="#484A56" stroke-width="1.5" stroke-linecap="round" stroke-linejoin="round"/>
<path d="M7.49835 17.9168V2.08344" stroke="#484A56" stroke-width="1.5"/>
<path d="M17.915 6.66675H7" stroke="#484A56" stroke-width="1.5"/>
<path d="M17.915 13.3334H7" stroke="#484A56" stroke-width="1.5"/>
<path d="M3 3L7 2V18L2.5 16L3 3Z" fill="#484A56"/>
</svg>
