<svg width="512" height="512" viewBox="0 0 512 512" fill="none" xmlns="http://www.w3.org/2000/svg">
<rect x="1" y="1" width="510" height="510" rx="255" fill="#EDE9DC" stroke="#484A56" stroke-width="2"/>
<path d="M461.394 264.076C411.258 167.099 315.165 198.078 273.386 225.69C311.459 217.521 390.031 205.277 399.735 221.649C238.008 235.791 140.972 315.595 140.972 455C106.605 289.331 233.965 224.679 239.019 221.649C273.386 206.496 322.915 163.059 316.85 137.804C307.955 101.438 215.433 73.4894 170.285 64.0611L259.235 58C365.166 59.6163 362.673 99.754 348.185 119.621C422.983 139.824 513.955 176.191 461.394 264.076Z" fill="#484A56"/>
<path d="M50 110.529C70.2159 85.2748 131.268 45.0697 213.749 86.285C132.077 63.657 70.5528 93.0195 50 110.529Z" fill="#484A56"/>
<path d="M239.019 132.753C249.8 128.712 274.194 125.278 285.515 143.865C296.836 162.452 259.235 144.202 239.019 132.753Z" fill="#484A56"/>
</svg>
